<svg xmlns="http://www.w3.org/2000/svg" xmlns:xlink="http://www.w3.org/1999/xlink" viewBox="0 0 243.05 238.5"><defs><style>.cls-1{fill:none;}.cls-2{clip-path:url(#clip-path);}.cls-3{fill:#26467b;}.cls-4{fill:#717070;}</style><clipPath id="clip-path" transform="translate(-161.66 -165.09)"><rect class="cls-1" width="566.93" height="566.93"/></clipPath></defs><g id="Layer_2" data-name="Layer 2"><g id="Layer_1-2" data-name="Layer 1"><g class="cls-2"><g class="cls-2"><path class="cls-3" d="M249,374.19a11.68,11.68,0,0,0-3.6-2.35A11.4,11.4,0,0,0,241,371H218V378h23a4.18,4.18,0,0,1,1.62.32,3.92,3.92,0,0,1,1.32.86,4.57,4.57,0,0,1,.94,1.33,3.57,3.57,0,0,1,.34,1.48H222.34a11.24,11.24,0,0,0-7.75,3.08,11,11,0,0,0-2.44,3.37,9.77,9.77,0,0,0-.92,4.2,8.5,8.5,0,0,0,.29,2.19,11.84,11.84,0,0,0,.73,2,11,11,0,0,0,4.13,4.6,12.46,12.46,0,0,0,2.87,1.31,10.63,10.63,0,0,0,3.23.49l29.87.05V382.07a10.78,10.78,0,0,0-.89-4.35,11,11,0,0,0-2.44-3.53m-3.79,22.07H222.34a4,4,0,0,1-1.53-.29,4.14,4.14,0,0,1-1.25-.78,3.94,3.94,0,0,1-.86-1.14,3.31,3.31,0,0,1,.13-3,3.83,3.83,0,0,1,1.32-1.27l0,0a4.08,4.08,0,0,1,2.3-.65h22.75Z" transform="translate(-161.66 -165.09)"/><path class="cls-3" d="M295.51,374.84a13.8,13.8,0,0,0-4.38-2.95,13.66,13.66,0,0,0-5.39-1.09H273.93a13.84,13.84,0,0,0-4.63.77,14.89,14.89,0,0,0-2.07.94v-8.3h-7.12v39.07h7.12V384.46a6.5,6.5,0,0,1,.51-2.56,6.89,6.89,0,0,1,1.41-2.12,6.09,6.09,0,0,1,2.1-1.4,7,7,0,0,1,2.68-.51h11.81a7,7,0,0,1,2.64.49,6.4,6.4,0,0,1,2.12,1.37,6.79,6.79,0,0,1,1.45,2.1,6.44,6.44,0,0,1,.53,2.63v18.82h7.12V384.46a13.29,13.29,0,0,0-4.09-9.62" transform="translate(-161.66 -165.09)"/><rect class="cls-3" x="143.81" y="205.27" width="7.25" height="32.92"/><path class="cls-3" d="M356.38,374.44a14.49,14.49,0,0,0-4.47-3,13.9,13.9,0,0,0-5.53-1.11H318v32.92h28.38a14,14,0,0,0,5.47-1.08,14.1,14.1,0,0,0,7.53-7.35,13.32,13.32,0,0,0,1.13-5.44v-5.22a13.17,13.17,0,0,0-1.11-5.37,14.06,14.06,0,0,0-3-4.38m-3.12,15a6.55,6.55,0,0,1-.53,2.61,6.86,6.86,0,0,1-1.47,2.14,7,7,0,0,1-2.17,1.44,6.6,6.6,0,0,1-2.62.53H325.21V377.47h21.17A6.78,6.78,0,0,1,349,378a7.11,7.11,0,0,1,2.22,1.45,6.82,6.82,0,0,1,1.48,2.11,6.28,6.28,0,0,1,.53,2.54Z" transform="translate(-161.66 -165.09)"/><path class="cls-3" d="M400.53,374.84a13.84,13.84,0,0,0-4.39-2.95,13.66,13.66,0,0,0-5.39-1.09H378.94a13.88,13.88,0,0,0-4.63.77,14.89,14.89,0,0,0-2.07.94v-8.3h-7.12v39.07h7.12V384.46a6.5,6.5,0,0,1,.51-2.56,6.92,6.92,0,0,1,1.42-2.12,6.05,6.05,0,0,1,2.09-1.4,7,7,0,0,1,2.68-.51h11.81a7,7,0,0,1,2.64.49,6.39,6.39,0,0,1,2.13,1.37,6.76,6.76,0,0,1,1.44,2.1,6.28,6.28,0,0,1,.54,2.63v18.82h7.11V384.46a13.34,13.34,0,0,0-4.08-9.62" transform="translate(-161.66 -165.09)"/><rect class="cls-3" x="57.91" y="153.06" width="7.66" height="5.6"/><rect class="cls-3" x="235.32" y="153.06" width="7.66" height="5.6"/><path class="cls-3" d="M397.09,327.43v16.14c0,1.85-.81,2.94-2.43,3.29H389.2c-1.59-.35-2.39-1.44-2.39-3.29V318.92h-7.62V346a10.14,10.14,0,0,0,.95,4.95,4.66,4.66,0,0,0,3.18,2.19,25.53,25.53,0,0,0,5.2.42h6.83a26.71,26.71,0,0,0,5.27-.42,4.61,4.61,0,0,0,3.13-2.15,10.25,10.25,0,0,0,1-5V327.43Z" transform="translate(-161.66 -165.09)"/><path class="cls-3" d="M374,329.78a4.74,4.74,0,0,0-3.45-2,15.25,15.25,0,0,0-2-.27c-.8-.05-1.74-.08-2.83-.08H329.89v19.46H312.73l6.68,6.69h55.68v-18.7a9.5,9.5,0,0,0-1.06-5.07M348.47,344.1c0,1.86-.87,2.8-2.62,2.8h-5.91a2.3,2.3,0,0,1-1.77-.82,3.17,3.17,0,0,1-.59-2l0-10h10.92Zm19,2.8H356.36V334.12h6.22a11.87,11.87,0,0,1,1.84.12,3.66,3.66,0,0,1,1.27.44,3.81,3.81,0,0,1,1.74,3.5Z" transform="translate(-161.66 -165.09)"/><path class="cls-3" d="M197.57,370.27v25.67a.53.53,0,0,1-.21.28.77.77,0,0,1-.49.17.67.67,0,0,1-.27-.07,1.82,1.82,0,0,1-.26-.15l-10.15-11.71-10.12-11.69a6.84,6.84,0,0,0-2.77-2.17,8.51,8.51,0,0,0-6-.18,8.23,8.23,0,0,0-2.5,1.33,7,7,0,0,0-2.71,5l-.06.18V402.5a32.84,32.84,0,0,0,7.21.78V377.51c0-.13,0-.15.07-.17a1.23,1.23,0,0,1,.68-.18.72.72,0,0,1,.52.17c1.52,1.79,3.17,3.7,4.9,5.69l5.23,6,5.23,6.06c1.73,2,3.41,3.92,5,5.71a8.08,8.08,0,0,0,1.31,1.22,6.21,6.21,0,0,0,1.35.77,5.64,5.64,0,0,0,1.64.6,8.08,8.08,0,0,0,1.65.18,8.5,8.5,0,0,0,2.83-.48,7.81,7.81,0,0,0,2.45-1.43,8.26,8.26,0,0,0,1.81-2.2,7.4,7.4,0,0,0,.91-2.93V370.27Z" transform="translate(-161.66 -165.09)"/><path class="cls-3" d="M252.11,346.86h-3.83v-12a9.67,9.67,0,0,0-1.05-5.06,4.69,4.69,0,0,0-3.47-2,15.08,15.08,0,0,0-2-.27c-.8-.05-1.73-.08-2.79-.08H199a14.48,14.48,0,0,0-1.76.1,4.53,4.53,0,0,0-1.61.51,5.45,5.45,0,0,0-1.48,1.19,8,8,0,0,0-1.33,2.15,8.26,8.26,0,0,0-1-1.89,4.51,4.51,0,0,0-1.07-1.07,3.44,3.44,0,0,0-1.13-.5c-.4-.1-.79-.18-1.2-.25a13.51,13.51,0,0,0-3-.21v25.91a3,3,0,0,1-2.39,3.29h-11.3c-1.62-.35-2.43-1.45-2.43-3.29V327.43a30.63,30.63,0,0,0-7.7,1v34.86h22.11a29.6,29.6,0,0,0,5.27-.38,4.58,4.58,0,0,0,3.13-2.17,10.32,10.32,0,0,0,1-5v-2.17H298.77l6.69-6.69Zm-11.49,0-47.41,0v-9.38a3.7,3.7,0,0,1,.57-2.17,3.31,3.31,0,0,1,1.78-1.19h40.2a11.7,11.7,0,0,1,1.84.12,3.59,3.59,0,0,1,1.27.44v0a3.81,3.81,0,0,1,1.75,3.54Z" transform="translate(-161.66 -165.09)"/><path class="cls-3" d="M302.82,293h0c-9.5-9.88-18.8-19.66-21.14-22.54-4.87-6-10.49-9.1-17.89-8.43H258v-47.5c4.67-1.26,8-.21,11.26,3.23,8.16,8.64,16.74,16.9,25.17,25.28a30.46,30.46,0,0,0,2.61,2.1V224.38c-6.47,1.43-10.88-1.25-14.77-5.79-3.34-3.89-7.22-7.32-10.91-10.9-.81-.79-1.83-1.9-2.78-1.93-6.38-.16-12.78-.08-19.26-.08V271h18.16a10.65,10.65,0,0,1,5.64,3.56h0q.36.38.72.78l2.66,2.88.39.38h0l18.65,19.68a26.85,26.85,0,0,1-30.76-5.12l-37-37a26.81,26.81,0,0,1,0-37.93l28.56-28.57-5.7-5.9L221.9,212.36a35,35,0,0,0,0,49.54l37,37a35,35,0,0,0,49.54,0l0-.05Z" transform="translate(-161.66 -165.09)"/><polygon class="cls-3" points="94.58 18.72 76.49 18.61 85.59 27.71 94.69 36.81 94.58 18.72"/><rect class="cls-4" x="302.12" y="349.72" width="13.96" height="13.96" transform="translate(-323.36 157.95) rotate(-45)"/><path class="cls-4" d="M345.5,212.36l-37-37a35,35,0,0,0-49.54,0l-2,2-.07.07c1.79,1.91,3.69,3.91,5.63,6,10.47,11.06,22.2,23.45,26.5,27.84a9.2,9.2,0,0,0,5.29,1.67c4.12.1,8.24,0,12.48,0V261h-6.32a12,12,0,0,1-6.09-3.81c-7.6-8.18-15.67-15.9-23.58-23.79-.85-.85-1.84-1.57-3-2.53v20.07c9.38,1.11,9.38,1.11,14.36,6.05,3.45,3.41,6.88,6.83,10.36,10.2.83.8,1.81,2,2.75,2,6.66.18,13.33.09,19.94.09V204.68H296.92a12,12,0,0,1-6.15-3.67h0c-1-1-1.89-2.06-2.83-3.21l-18.71-20.28a26.88,26.88,0,0,1,33.44,3.62l37,37a26.83,26.83,0,0,1,0,37.93l-30.51,30.51,5.76,5.84L345.5,261.9a35,35,0,0,0,0-49.54" transform="translate(-161.66 -165.09)"/><polygon class="cls-4" points="147.58 127.25 165.67 127.36 156.57 118.26 147.47 109.16 147.58 127.25"/></g></g></g></g></svg>